<?xml version="1.0" encoding="utf-8"?>
<!-- Generator: Adobe Illustrator 25.2.3, SVG Export Plug-In . SVG Version: 6.00 Build 0)  -->
<svg version="1.1" id="Layer_1" xmlns="http://www.w3.org/2000/svg" xmlns:xlink="http://www.w3.org/1999/xlink" x="0px" y="0px"
	 viewBox="0 0 504.4 315.8" style="enable-background:new 0 0 504.4 315.8;" xml:space="preserve">
<style type="text/css">
	.st0{fill:#3BB44A;}
	.st1{fill:url(#SVGID_1_);}
	.st2{fill:url(#SVGID_2_);}
	.st3{fill:url(#SVGID_3_);}
	.st4{fill:url(#SVGID_4_);}
	.st5{fill:url(#SVGID_5_);}
	.st6{fill:url(#SVGID_6_);}
	.st7{fill:url(#SVGID_7_);}
</style>
<g>
	<g>
		<g>
			<polygon class="st0" points="111.8,112 111.8,4.3 251.9,310.2 392.6,4.3 392.6,112 251.1,245.7 			"/>
			
				<linearGradient id="SVGID_1_" gradientUnits="userSpaceOnUse" x1="251.4653" y1="13.8248" x2="253.9696" y2="290.1305" gradientTransform="matrix(0 1 -1 0 408.3165 -96.096)">
				<stop  offset="0" style="stop-color:#000000"/>
				<stop  offset="0.5104" style="stop-color:#3BB44A"/>
				<stop  offset="1" style="stop-color:#000000"/>
			</linearGradient>
			<polygon class="st1" points="111.8,112 111.8,4.3 251.9,310.2 392.6,4.3 392.6,112 251.1,245.7 			"/>
			
				<linearGradient id="SVGID_2_" gradientUnits="userSpaceOnUse" x1="251.4653" y1="13.8247" x2="253.9696" y2="290.1305" gradientTransform="matrix(0 1 -1 0 408.3165 -96.096)">
				<stop  offset="0" style="stop-color:#000000"/>
				<stop  offset="0.5104" style="stop-color:#3BB44A"/>
				<stop  offset="1" style="stop-color:#000000"/>
			</linearGradient>
			<polygon class="st2" points="111.8,112 111.8,4.3 251.9,310.2 392.6,4.3 392.6,112 251.1,245.7 			"/>
			<g>
				
					<linearGradient id="SVGID_3_" gradientUnits="userSpaceOnUse" x1="404.5815" y1="82.6679" x2="220.2843" y2="82.6679" gradientTransform="matrix(0 1 -1 0 408.3165 -96.096)">
					<stop  offset="0" style="stop-color:#FFFFFF"/>
					<stop  offset="1" style="stop-color:#221F1F"/>
				</linearGradient>
				<polygon class="st3" points="392.6,124.2 310.9,199.9 258.7,308.5 				"/>
				
					<linearGradient id="SVGID_4_" gradientUnits="userSpaceOnUse" x1="404.5815" y1="229.5525" x2="220.2843" y2="229.5525" gradientTransform="matrix(0 1 -1 0 408.3165 -96.096)">
					<stop  offset="0" style="stop-color:#FFFFFF"/>
					<stop  offset="1" style="stop-color:#221F1F"/>
				</linearGradient>
				<polygon class="st4" points="111.8,124.2 193.5,199.9 245.7,308.5 				"/>
			</g>
			<linearGradient id="SVGID_5_" gradientUnits="userSpaceOnUse" x1="254.3486" y1="77.6115" x2="256.4121" y2="305.2718">
				<stop  offset="0" style="stop-color:#000000"/>
				<stop  offset="0.5104" style="stop-color:#3BB44A"/>
				<stop  offset="0.8292" style="stop-color:#3BB44A"/>
				<stop  offset="1" style="stop-color:#000000"/>
			</linearGradient>
			<polygon class="st5" points="251.9,310.2 149.8,87.1 252.2,157.3 359,77.1 			"/>
		</g>
		<g>
			<linearGradient id="SVGID_6_" gradientUnits="userSpaceOnUse" x1="252.2063" y1="315.8498" x2="252.2063" y2="42.2494">
				<stop  offset="0" style="stop-color:#7278B8"/>
				<stop  offset="9.612052e-02" style="stop-color:#336CB4"/>
				<stop  offset="0.2651" style="stop-color:#9982BC"/>
				<stop  offset="0.4231" style="stop-color:#41499E"/>
				<stop  offset="0.5775" style="stop-color:#2653A2"/>
				<stop  offset="0.7988" style="stop-color:#29357A"/>
				<stop  offset="1" style="stop-color:#3B4081"/>
			</linearGradient>
			<path class="st6" d="M0,42.5c39.6,31.4,79.2,62.9,118.8,94.3l-57.3,178l119.7-129.9c23.5,18.5,47,36.9,70.5,55.4
				c23.5-18.8,47.1-37.6,70.6-56.4l117.6,132l-55.2-180c39.9-31.2,79.8-62.4,119.7-93.6c-84.3,42.2-168.6,84.4-252.9,126.6
				C167.7,126.7,83.8,84.6,0,42.5z"/>
			<linearGradient id="SVGID_7_" gradientUnits="userSpaceOnUse" x1="252.2113" y1="159.954" x2="252.2113" y2="-9.094947e-13">
				<stop  offset="0" style="stop-color:#7278B8"/>
				<stop  offset="9.612052e-02" style="stop-color:#336CB4"/>
				<stop  offset="0.2651" style="stop-color:#9982BC"/>
				<stop  offset="0.4231" style="stop-color:#41499E"/>
				<stop  offset="0.5775" style="stop-color:#2653A2"/>
				<stop  offset="0.7988" style="stop-color:#29357A"/>
				<stop  offset="1" style="stop-color:#3B4081"/>
			</linearGradient>
			<path class="st7" d="M69.6,2.9c0,18.2,0,36.4,0,54.6c60.7,34.1,121.3,68.3,182,102.4C312.7,126,373.8,92.1,434.8,58.1
				c0-19.4,0-38.8,0-58.1c-61.1,37.7-122.2,75.5-183.3,113.2C190.9,76.4,130.2,39.7,69.6,2.9z"/>
		</g>
	</g>
</g>
</svg>
