<?xml version="1.0" encoding="utf-8"?>
<!-- Generator: Adobe Illustrator 25.2.3, SVG Export Plug-In . SVG Version: 6.00 Build 0)  -->
<svg version="1.1" id="Layer_1" xmlns="http://www.w3.org/2000/svg" xmlns:xlink="http://www.w3.org/1999/xlink" x="0px" y="0px"
	 viewBox="0 0 640 315.8" style="enable-background:new 0 0 640 315.8;" xml:space="preserve">
<style type="text/css">
	.st0{fill:#3BB44A;}
	.st1{fill:#F7F7F7;}
	.st2{fill:url(#SVGID_1_);}
	.st3{fill:url(#SVGID_2_);}
	.st4{fill:url(#SVGID_3_);}
	.st5{fill:url(#SVGID_4_);}
	.st6{fill:url(#SVGID_5_);}
	.st7{fill:url(#SVGID_6_);}
	.st8{fill:url(#SVGID_7_);}
	.st9{fill:url(#SVGID_8_);}
	.st10{fill:url(#SVGID_9_);}
	.st11{fill:url(#SVGID_10_);}
	.st12{fill:url(#SVGID_11_);}
	.st13{fill:url(#SVGID_12_);}
	.st14{fill:url(#SVGID_13_);}
	.st15{fill:url(#SVGID_14_);}
	.st16{fill:url(#SVGID_15_);}
	.st17{fill:url(#SVGID_16_);}
	.st18{fill:url(#SVGID_17_);}
</style>
<g>
	
		<image style="overflow:visible;" width="709" height="765" xlink:href="17DE1850.png"  transform="matrix(0.24 0 0 0.24 236.1466 24.9768)">
	</image>
	<g>
		<polygon class="st0" points="319.7,182 262.5,56.8 319.9,96.2 379.8,51.2 		"/>
	</g>
</g>
<path class="st1" d="M95.4,310.7H85l-2.2,5h-2.1l8.6-18.7h2l8.6,18.7h-2.1L95.4,310.7z M94.7,309.1L90.2,299l-4.5,10.1H94.7z"/>
<path class="st1" d="M121,315.7l-4.3-6c-0.5,0.1-1,0.1-1.5,0.1h-5v5.9h-2V297h7c4.8,0,7.6,2.4,7.6,6.4c0,2.9-1.6,5-4.3,5.9l4.6,6.4
	H121z M120.9,303.4c0-3-2-4.7-5.7-4.7h-5v9.4h5C118.9,308.1,120.9,306.3,120.9,303.4z"/>
<path class="st1" d="M136.2,298.7h-6.6V297h15.1v1.7h-6.6v17h-2V298.7z"/>
<path class="st1" d="M164,306.3c0-5.5,4.2-9.5,9.8-9.5c2.7,0,5.2,0.9,6.8,2.7l-1.3,1.3c-1.5-1.6-3.4-2.2-5.5-2.2
	c-4.5,0-7.9,3.3-7.9,7.8s3.4,7.8,7.9,7.8c2.1,0,4-0.7,5.5-2.2l1.3,1.3c-1.7,1.8-4.1,2.8-6.9,2.8C168.2,315.8,164,311.8,164,306.3z"
	/>
<path class="st1" d="M190,307.7V297h2v10.6c0,4.4,2.1,6.5,5.7,6.5c3.7,0,5.7-2,5.7-6.5V297h1.9v10.7c0,5.4-2.9,8.2-7.7,8.2
	C192.9,315.8,190,313.1,190,307.7z"/>
<path class="st1" d="M216.7,297h2v17h10.5v1.7h-12.5V297z"/>
<path class="st1" d="M239.7,298.7h-6.6V297h15.1v1.7h-6.6v17h-2V298.7z"/>
<path class="st1" d="M256.2,307.7V297h2v10.6c0,4.4,2.1,6.5,5.7,6.5c3.7,0,5.7-2,5.7-6.5V297h1.9v10.7c0,5.4-2.9,8.2-7.7,8.2
	C259.1,315.8,256.2,313.1,256.2,307.7z"/>
<path class="st1" d="M295.7,315.7l-4.3-6c-0.5,0.1-1,0.1-1.5,0.1h-5v5.9h-2V297h7c4.8,0,7.6,2.4,7.6,6.4c0,2.9-1.6,5-4.3,5.9
	l4.6,6.4H295.7z M295.6,303.4c0-3-2-4.7-5.7-4.7h-5v9.4h5C293.6,308.1,295.6,306.3,295.6,303.4z"/>
<path class="st1" d="M320.8,314v1.7h-13.2V297h12.8v1.7h-10.9v6.7h9.7v1.7h-9.7v7H320.8z"/>
<path class="st1" d="M362.6,297v18.7h-1.9v-15l-7.4,12.6h-0.9l-7.4-12.5v14.9h-1.9V297h1.6l8.1,13.9l8-13.9H362.6z"/>
<path class="st1" d="M387.3,314v1.7H374V297h12.8v1.7H376v6.7h9.7v1.7H376v7H387.3z"/>
<path class="st1" d="M410.5,314v1.7h-13.2V297h12.8v1.7h-10.9v6.7h9.7v1.7h-9.7v7H410.5z"/>
<path class="st1" d="M424.1,298.7h-6.6V297h15.1v1.7h-6.6v17h-2V298.7z"/>
<path class="st1" d="M439.1,313.4l0.8-1.5c1.3,1.3,3.7,2.3,6.2,2.3c3.5,0,5-1.5,5-3.3c0-5.1-11.5-2-11.5-8.9c0-2.8,2.1-5.1,6.9-5.1
	c2.1,0,4.3,0.6,5.8,1.7l-0.7,1.6c-1.6-1-3.5-1.6-5.1-1.6c-3.4,0-4.9,1.5-4.9,3.4c0,5.1,11.5,2,11.5,8.8c0,2.8-2.2,5.1-7,5.1
	C443.3,315.8,440.5,314.9,439.1,313.4z"/>
<path class="st1" d="M478.7,298.7h-6.6V297h15.1v1.7h-6.6v17h-2V298.7z"/>
<path class="st1" d="M509,314v1.7h-13.2V297h12.8v1.7h-10.9v6.7h9.7v1.7h-9.7v7H509z"/>
<path class="st1" d="M517.2,306.3c0-5.5,4.2-9.5,9.8-9.5c2.7,0,5.2,0.9,6.8,2.7l-1.3,1.3c-1.5-1.6-3.4-2.2-5.5-2.2
	c-4.5,0-7.9,3.3-7.9,7.8s3.4,7.8,7.9,7.8c2.1,0,4-0.7,5.5-2.2l1.3,1.3c-1.7,1.8-4.1,2.8-6.9,2.8
	C521.4,315.8,517.2,311.8,517.2,306.3z"/>
<path class="st1" d="M559.1,297v18.7h-2v-8.6h-11.7v8.6h-2V297h2v8.3h11.7V297H559.1z"/>
<g>
	<g>
		<path d="M44,220.2v49.4h-7.2v-32.2l-9.7,9.7l-2.3,2.3l-2.7,2.7L6.9,237.2v0l-7.2-7.2v-10.1l22.3,22.3L44,220.2z M-0.2,235.1
			l7.2,7.2v27.5h-7.2V235.1z"/>
		<path d="M85.7,232.7l4.7,8.6l-15.7,28.4h-9.4L85.7,232.7z M120.3,269.7h-9.5L92.8,237l-4.7-8.5l4.7-8.5l0,0l4.7,8.5L120.3,269.7z"
			/>
		<path d="M178.5,269.7h-21.4c-7,0-13.3-2.7-17.8-7.2c-4.6-4.5-7.5-10.7-7.5-17.6c0-6.9,2.9-13.1,7.5-17.6
			c4.6-4.4,10.9-7.2,17.8-7.2h21.3v7.2h-23.8c-8.9,1.2-15.9,8.6-15.9,17.6c0,9,6.9,16.4,15.9,17.6h16.8v-15.8h-14.1l-3.3-7.2h24.6
			V269.7z"/>
		<path d="M239.9,220.1v49.4l-7.2-7.2l-25.1-25.1v0l-7.2-7.2V220l32.2,32.2v-32.1H239.9z M200.6,235.1l7.2,7.2v27.4h-7.2V235.1z"/>
		<path d="M286,220c13.7,0,24.8,11.1,24.8,24.8c0,13.7-11.1,24.8-24.8,24.8c-13.7,0-24.8-11.1-24.8-24.8S272.3,220,286,220z
			 M268.3,244.9c0,9.7,7.9,17.7,17.7,17.7c9.7,0,17.7-7.9,17.7-17.7c0-9.7-7.9-17.7-17.7-17.7C276.3,227.2,268.3,235.1,268.3,244.9z
			"/>
		<path d="M348.2,248.3l-4.7,8.6l-20.5-37h9.4L348.2,248.3z M378.1,219.9l-22.8,41.2l-4.7,8.5l0,0l-4.7-8.5l4.7-8.5l18.1-32.7H378.1
			z"/>
		<path d="M443.1,220.1v7.2h-43.9v-7.2H443.1z M406.4,262.5h36.7v7.2h-43.9v-38.9h7.2v8.7h31.9v7.2h-31.9V262.5z"/>
		<path d="M511.4,269.7H503l-14.3-23.4l-0.4-0.6c0,0-0.1,0-0.1,0c-0.1,0-0.3,0.1-0.4,0.1c0,0-0.1,0-0.1,0c-0.2,0-0.4,0.1-0.6,0.1
			c-0.4,0.1-0.9,0.2-1.3,0.3c-0.1,0-0.2,0-0.4,0.1c-0.1,0-0.1,0-0.2,0c-0.2,0-0.3,0-0.5,0.1c-0.1,0-0.1,0-0.2,0
			c-0.2,0-0.3,0-0.5,0.1c-0.2,0-0.4,0-0.6,0.1c0,0,0,0,0,0c-0.2,0-0.4,0-0.6,0c0,0-0.1,0-0.1,0c-0.1,0-0.3,0-0.4,0
			c-0.1,0-0.2,0-0.3,0c-0.2,0-0.3,0-0.5,0h-9.2v23.2h-7.2v-49.7h41.1c0,0.6,0.1,1.2,0.1,1.8c0,1.9-0.2,3.7-0.6,5.4
			c-1.1,4.7-3.5,9-6.8,12.3c-0.3,0.3-0.6,0.6-1,0.9c-0.1,0.1-0.2,0.2-0.3,0.3c0,0,0,0,0,0c-0.1,0.1-0.3,0.2-0.4,0.4
			c-0.1,0.1-0.2,0.2-0.3,0.3c-0.1,0.1-0.2,0.1-0.2,0.2c-0.3,0.2-0.6,0.4-0.8,0.6c-0.1,0.1-0.3,0.2-0.4,0.3c0,0,0,0,0,0
			c-0.1,0.1-0.3,0.2-0.4,0.2c0,0,0,0-0.1,0c0,0-0.1,0.1-0.1,0.1l0.9,1.4L511.4,269.7z M494.1,234.3c2-2,3.6-4.5,4.4-7.2h-26v12.3
			h9.2c2.5,0,4.8-0.5,7-1.4C490.6,237.1,492.5,235.8,494.1,234.3z"/>
		<path d="M571.4,248.4c1.2,2.1,1.9,4.5,1.9,7c0,2.6-0.7,5-1.9,7c-2.4,4.3-7,7.2-12.3,7.2h-15.4c-5.3,0-9.9-2.9-12.3-7.2
			c-1.1-2-1.8-4.2-1.9-6.7h7.2c0.2,3.7,3.3,6.7,7.1,6.7h15.4c3.9,0,7-3.2,7-7c0-3.9-3.2-7-7-7h-15.5c-4,0-7.6-1.6-10.2-4.3
			c-0.8-0.9-1.6-1.8-2.1-2.8c-1.2-2.1-1.9-4.5-1.9-7c0-2.6,0.7-5,1.9-7c2.4-4.3,7-7.2,12.3-7.2h15.1c0.1,0,0.2,0,0.4,0
			c0.1,0,0.2,0,0.4,0c5.1,0.1,9.6,3,12,7.1c0,0,0,0,0,0c1.1,2,1.8,4.2,1.9,6.7h-7.2c-0.2-3.6-3.1-6.5-6.8-6.7h-15.7
			c-3.9,0-7,3.2-7,7c0,3.6,2.8,6.7,6.3,7c0.2,0,0.5,0,0.7,0c0.4,0,0.8,0,1.2,0.1h14.2C564.3,241.3,568.9,244.2,571.4,248.4z"/>
		<path d="M640,220.1v7.2h-43.9v-7.2H640z M603.3,262.5H640v7.2h-43.9v-38.9h7.2v8.7h31.9v7.2h-31.9V262.5z"/>
	</g>
	<g>
		<linearGradient id="SVGID_1_" gradientUnits="userSpaceOnUse" x1="-0.2362" y1="244.7776" x2="640" y2="244.7776">
			<stop  offset="0" style="stop-color:#7278B8"/>
			<stop  offset="9.612052e-02" style="stop-color:#336CB4"/>
			<stop  offset="0.2651" style="stop-color:#9982BC"/>
			<stop  offset="0.4231" style="stop-color:#41499E"/>
			<stop  offset="0.5775" style="stop-color:#2653A2"/>
			<stop  offset="0.7988" style="stop-color:#29357A"/>
			<stop  offset="1" style="stop-color:#3B4081"/>
		</linearGradient>
		<path class="st2" d="M44,220.2v49.4h-7.2v-32.2l-9.7,9.7l-2.3,2.3l-2.7,2.7L6.9,237.2v0l-7.2-7.2v-10.1l22.3,22.3L44,220.2z
			 M-0.2,235.1l7.2,7.2v27.5h-7.2V235.1z"/>
		<linearGradient id="SVGID_2_" gradientUnits="userSpaceOnUse" x1="-0.2362" y1="244.7776" x2="640" y2="244.7776">
			<stop  offset="0" style="stop-color:#7278B8"/>
			<stop  offset="9.612052e-02" style="stop-color:#336CB4"/>
			<stop  offset="0.2651" style="stop-color:#9982BC"/>
			<stop  offset="0.4231" style="stop-color:#41499E"/>
			<stop  offset="0.5775" style="stop-color:#2653A2"/>
			<stop  offset="0.7988" style="stop-color:#29357A"/>
			<stop  offset="1" style="stop-color:#3B4081"/>
		</linearGradient>
		<path class="st3" d="M85.7,232.7l4.7,8.6l-15.7,28.4h-9.4L85.7,232.7z M120.3,269.7h-9.5L92.8,237l-4.7-8.5l4.7-8.5l0,0l4.7,8.5
			L120.3,269.7z"/>
		<linearGradient id="SVGID_3_" gradientUnits="userSpaceOnUse" x1="-0.2362" y1="244.7776" x2="640" y2="244.7776">
			<stop  offset="0" style="stop-color:#7278B8"/>
			<stop  offset="9.612052e-02" style="stop-color:#336CB4"/>
			<stop  offset="0.2651" style="stop-color:#9982BC"/>
			<stop  offset="0.4231" style="stop-color:#41499E"/>
			<stop  offset="0.5775" style="stop-color:#2653A2"/>
			<stop  offset="0.7988" style="stop-color:#29357A"/>
			<stop  offset="1" style="stop-color:#3B4081"/>
		</linearGradient>
		<path class="st4" d="M178.5,269.7h-21.4c-7,0-13.3-2.7-17.8-7.2c-4.6-4.5-7.5-10.7-7.5-17.6c0-6.9,2.9-13.1,7.5-17.6
			c4.6-4.4,10.9-7.2,17.8-7.2h21.3v7.2h-23.8c-8.9,1.2-15.9,8.6-15.9,17.6c0,9,6.9,16.4,15.9,17.6h16.8v-15.8h-14.1l-3.3-7.2h24.6
			V269.7z"/>
		<linearGradient id="SVGID_4_" gradientUnits="userSpaceOnUse" x1="-0.2362" y1="244.7776" x2="640" y2="244.7776">
			<stop  offset="0" style="stop-color:#7278B8"/>
			<stop  offset="9.612052e-02" style="stop-color:#336CB4"/>
			<stop  offset="0.2651" style="stop-color:#9982BC"/>
			<stop  offset="0.4231" style="stop-color:#41499E"/>
			<stop  offset="0.5775" style="stop-color:#2653A2"/>
			<stop  offset="0.7988" style="stop-color:#29357A"/>
			<stop  offset="1" style="stop-color:#3B4081"/>
		</linearGradient>
		<path class="st5" d="M239.9,220.1v49.4l-7.2-7.2l-25.1-25.1v0l-7.2-7.2V220l32.2,32.2v-32.1H239.9z M200.6,235.1l7.2,7.2v27.4
			h-7.2V235.1z"/>
		<linearGradient id="SVGID_5_" gradientUnits="userSpaceOnUse" x1="-0.2362" y1="244.7776" x2="640" y2="244.7776">
			<stop  offset="0" style="stop-color:#7278B8"/>
			<stop  offset="9.612052e-02" style="stop-color:#336CB4"/>
			<stop  offset="0.2651" style="stop-color:#9982BC"/>
			<stop  offset="0.4231" style="stop-color:#41499E"/>
			<stop  offset="0.5775" style="stop-color:#2653A2"/>
			<stop  offset="0.7988" style="stop-color:#29357A"/>
			<stop  offset="1" style="stop-color:#3B4081"/>
		</linearGradient>
		<path class="st6" d="M286,220c13.7,0,24.8,11.1,24.8,24.8c0,13.7-11.1,24.8-24.8,24.8c-13.7,0-24.8-11.1-24.8-24.8
			S272.3,220,286,220z M268.3,244.9c0,9.7,7.9,17.7,17.7,17.7c9.7,0,17.7-7.9,17.7-17.7c0-9.7-7.9-17.7-17.7-17.7
			C276.3,227.2,268.3,235.1,268.3,244.9z"/>
		<linearGradient id="SVGID_6_" gradientUnits="userSpaceOnUse" x1="-0.2362" y1="244.7776" x2="640" y2="244.7776">
			<stop  offset="0" style="stop-color:#7278B8"/>
			<stop  offset="9.612052e-02" style="stop-color:#336CB4"/>
			<stop  offset="0.2651" style="stop-color:#9982BC"/>
			<stop  offset="0.4231" style="stop-color:#41499E"/>
			<stop  offset="0.5775" style="stop-color:#2653A2"/>
			<stop  offset="0.7988" style="stop-color:#29357A"/>
			<stop  offset="1" style="stop-color:#3B4081"/>
		</linearGradient>
		<path class="st7" d="M348.2,248.3l-4.7,8.6l-20.5-37h9.4L348.2,248.3z M378.1,219.9l-22.8,41.2l-4.7,8.5l0,0l-4.7-8.5l4.7-8.5
			l18.1-32.7H378.1z"/>
		<linearGradient id="SVGID_7_" gradientUnits="userSpaceOnUse" x1="-0.2362" y1="244.7776" x2="640" y2="244.7776">
			<stop  offset="0" style="stop-color:#7278B8"/>
			<stop  offset="9.612052e-02" style="stop-color:#336CB4"/>
			<stop  offset="0.2651" style="stop-color:#9982BC"/>
			<stop  offset="0.4231" style="stop-color:#41499E"/>
			<stop  offset="0.5775" style="stop-color:#2653A2"/>
			<stop  offset="0.7988" style="stop-color:#29357A"/>
			<stop  offset="1" style="stop-color:#3B4081"/>
		</linearGradient>
		<path class="st8" d="M443.1,220.1v7.2h-43.9v-7.2H443.1z M406.4,262.5h36.7v7.2h-43.9v-38.9h7.2v8.7h31.9v7.2h-31.9V262.5z"/>
		<linearGradient id="SVGID_8_" gradientUnits="userSpaceOnUse" x1="-0.2362" y1="244.7776" x2="640" y2="244.7776">
			<stop  offset="0" style="stop-color:#7278B8"/>
			<stop  offset="9.612052e-02" style="stop-color:#336CB4"/>
			<stop  offset="0.2651" style="stop-color:#9982BC"/>
			<stop  offset="0.4231" style="stop-color:#41499E"/>
			<stop  offset="0.5775" style="stop-color:#2653A2"/>
			<stop  offset="0.7988" style="stop-color:#29357A"/>
			<stop  offset="1" style="stop-color:#3B4081"/>
		</linearGradient>
		<path class="st9" d="M511.4,269.7H503l-14.3-23.4l-0.4-0.6c0,0-0.1,0-0.1,0c-0.1,0-0.3,0.1-0.4,0.1c0,0-0.1,0-0.1,0
			c-0.2,0-0.4,0.1-0.6,0.1c-0.4,0.1-0.9,0.2-1.3,0.3c-0.1,0-0.2,0-0.4,0.1c-0.1,0-0.1,0-0.2,0c-0.2,0-0.3,0-0.5,0.1
			c-0.1,0-0.1,0-0.2,0c-0.2,0-0.3,0-0.5,0.1c-0.2,0-0.4,0-0.6,0.1c0,0,0,0,0,0c-0.2,0-0.4,0-0.6,0c0,0-0.1,0-0.1,0
			c-0.1,0-0.3,0-0.4,0c-0.1,0-0.2,0-0.3,0c-0.2,0-0.3,0-0.5,0h-9.2v23.2h-7.2v-49.7h41.1c0,0.6,0.1,1.2,0.1,1.8
			c0,1.9-0.2,3.7-0.6,5.4c-1.1,4.7-3.5,9-6.8,12.3c-0.3,0.3-0.6,0.6-1,0.9c-0.1,0.1-0.2,0.2-0.3,0.3c0,0,0,0,0,0
			c-0.1,0.1-0.3,0.2-0.4,0.4c-0.1,0.1-0.2,0.2-0.3,0.3c-0.1,0.1-0.2,0.1-0.2,0.2c-0.3,0.2-0.6,0.4-0.8,0.6c-0.1,0.1-0.3,0.2-0.4,0.3
			c0,0,0,0,0,0c-0.1,0.1-0.3,0.2-0.4,0.2c0,0,0,0-0.1,0c0,0-0.1,0.1-0.1,0.1l0.9,1.4L511.4,269.7z M494.1,234.3c2-2,3.6-4.5,4.4-7.2
			h-26v12.3h9.2c2.5,0,4.8-0.5,7-1.4C490.6,237.1,492.5,235.8,494.1,234.3z"/>
		<linearGradient id="SVGID_9_" gradientUnits="userSpaceOnUse" x1="-0.2362" y1="244.7776" x2="640" y2="244.7776">
			<stop  offset="0" style="stop-color:#7278B8"/>
			<stop  offset="9.612052e-02" style="stop-color:#336CB4"/>
			<stop  offset="0.2651" style="stop-color:#9982BC"/>
			<stop  offset="0.4231" style="stop-color:#41499E"/>
			<stop  offset="0.5775" style="stop-color:#2653A2"/>
			<stop  offset="0.7988" style="stop-color:#29357A"/>
			<stop  offset="1" style="stop-color:#3B4081"/>
		</linearGradient>
		<path class="st10" d="M571.4,248.4c1.2,2.1,1.9,4.5,1.9,7c0,2.6-0.7,5-1.9,7c-2.4,4.3-7,7.2-12.3,7.2h-15.4
			c-5.3,0-9.9-2.9-12.3-7.2c-1.1-2-1.8-4.2-1.9-6.7h7.2c0.2,3.7,3.3,6.7,7.1,6.7h15.4c3.9,0,7-3.2,7-7c0-3.9-3.2-7-7-7h-15.5
			c-4,0-7.6-1.6-10.2-4.3c-0.8-0.9-1.6-1.8-2.1-2.8c-1.2-2.1-1.9-4.5-1.9-7c0-2.6,0.7-5,1.9-7c2.4-4.3,7-7.2,12.3-7.2h15.1
			c0.1,0,0.2,0,0.4,0c0.1,0,0.2,0,0.4,0c5.1,0.1,9.6,3,12,7.1c0,0,0,0,0,0c1.1,2,1.8,4.2,1.9,6.7h-7.2c-0.2-3.6-3.1-6.5-6.8-6.7
			h-15.7c-3.9,0-7,3.2-7,7c0,3.6,2.8,6.7,6.3,7c0.2,0,0.5,0,0.7,0c0.4,0,0.8,0,1.2,0.1h14.2C564.3,241.3,568.9,244.2,571.4,248.4z"
			/>
		<linearGradient id="SVGID_10_" gradientUnits="userSpaceOnUse" x1="-0.2362" y1="244.7776" x2="640" y2="244.7776">
			<stop  offset="0" style="stop-color:#7278B8"/>
			<stop  offset="9.612052e-02" style="stop-color:#336CB4"/>
			<stop  offset="0.2651" style="stop-color:#9982BC"/>
			<stop  offset="0.4231" style="stop-color:#41499E"/>
			<stop  offset="0.5775" style="stop-color:#2653A2"/>
			<stop  offset="0.7988" style="stop-color:#29357A"/>
			<stop  offset="1" style="stop-color:#3B4081"/>
		</linearGradient>
		<path class="st11" d="M640,220.1v7.2h-43.9v-7.2H640z M603.3,262.5H640v7.2h-43.9v-38.9h7.2v8.7h31.9v7.2h-31.9V262.5z"/>
	</g>
</g>
<g>
	<g>
		
			<image style="overflow:visible;opacity:0.84;" width="1273" height="832" xlink:href="17DE1851.png"  transform="matrix(0.24 0 0 0.24 167.1946 -3.1751)">
		</image>
		<g>
			<g>
				<g>
					<polygon class="st0" points="241.1,70.8 241.1,10.5 319.7,182 398.6,10.5 398.6,70.8 319.3,145.8 					"/>
					
						<linearGradient id="SVGID_11_" gradientUnits="userSpaceOnUse" x1="259.0322" y1="76.4365" x2="260.4366" y2="231.3851" gradientTransform="matrix(0 1 -1 0 476.1102 -163.8897)">
						<stop  offset="0" style="stop-color:#000000"/>
						<stop  offset="0.5104" style="stop-color:#3BB44A"/>
						<stop  offset="1" style="stop-color:#000000"/>
					</linearGradient>
					<polygon class="st12" points="241.1,70.8 241.1,10.5 319.7,182 398.6,10.5 398.6,70.8 319.3,145.8 					"/>
					
						<linearGradient id="SVGID_12_" gradientUnits="userSpaceOnUse" x1="259.0322" y1="76.4365" x2="260.4366" y2="231.3851" gradientTransform="matrix(0 1 -1 0 476.1102 -163.8897)">
						<stop  offset="0" style="stop-color:#000000"/>
						<stop  offset="0.5104" style="stop-color:#3BB44A"/>
						<stop  offset="1" style="stop-color:#000000"/>
					</linearGradient>
					<polygon class="st13" points="241.1,70.8 241.1,10.5 319.7,182 398.6,10.5 398.6,70.8 319.3,145.8 					"/>
					<g>
						
							<linearGradient id="SVGID_13_" gradientUnits="userSpaceOnUse" x1="344.8977" y1="115.0428" x2="241.5463" y2="115.0428" gradientTransform="matrix(0 1 -1 0 476.1102 -163.8897)">
							<stop  offset="0" style="stop-color:#FFFFFF"/>
							<stop  offset="1" style="stop-color:#221F1F"/>
						</linearGradient>
						<polygon class="st14" points="398.6,77.7 352.8,120.1 323.5,181 						"/>
						
							<linearGradient id="SVGID_14_" gradientUnits="userSpaceOnUse" x1="344.8977" y1="197.4138" x2="241.5463" y2="197.4138" gradientTransform="matrix(0 1 -1 0 476.1102 -163.8897)">
							<stop  offset="0" style="stop-color:#FFFFFF"/>
							<stop  offset="1" style="stop-color:#221F1F"/>
						</linearGradient>
						<polygon class="st15" points="241.1,77.7 287,120.1 316.3,181 						"/>
					</g>
					<linearGradient id="SVGID_15_" gradientUnits="userSpaceOnUse" x1="321.0833" y1="51.537" x2="322.2404" y2="179.2058">
						<stop  offset="0" style="stop-color:#000000"/>
						<stop  offset="0.5104" style="stop-color:#3BB44A"/>
						<stop  offset="0.8292" style="stop-color:#3BB44A"/>
						<stop  offset="1" style="stop-color:#000000"/>
					</linearGradient>
					<polygon class="st16" points="319.7,182 262.4,56.9 319.9,96.2 379.8,51.2 					"/>
				</g>
				<g>
					<linearGradient id="SVGID_16_" gradientUnits="userSpaceOnUse" x1="319.8819" y1="185.1378" x2="319.8819" y2="31.7063">
						<stop  offset="0" style="stop-color:#7278B8"/>
						<stop  offset="9.612052e-02" style="stop-color:#336CB4"/>
						<stop  offset="0.2651" style="stop-color:#9982BC"/>
						<stop  offset="0.4231" style="stop-color:#41499E"/>
						<stop  offset="0.5775" style="stop-color:#2653A2"/>
						<stop  offset="0.7988" style="stop-color:#29357A"/>
						<stop  offset="1" style="stop-color:#3B4081"/>
					</linearGradient>
					<path class="st17" d="M178.4,31.8c22.2,17.6,44.4,35.3,66.6,52.9l-32.1,99.8l67.1-72.9c13.2,10.3,26.4,20.7,39.6,31
						c13.2-10.5,26.4-21.1,39.6-31.6l66,74l-31-101c22.4-17.5,44.7-35,67.1-52.5c-47.3,23.7-94.5,47.3-141.8,71
						C272.5,79.1,225.5,55.5,178.4,31.8z"/>
					<linearGradient id="SVGID_17_" gradientUnits="userSpaceOnUse" x1="319.8847" y1="97.7135" x2="319.8847" y2="8.0134">
						<stop  offset="0" style="stop-color:#7278B8"/>
						<stop  offset="9.612052e-02" style="stop-color:#336CB4"/>
						<stop  offset="0.2651" style="stop-color:#9982BC"/>
						<stop  offset="0.4231" style="stop-color:#41499E"/>
						<stop  offset="0.5786" style="stop-color:#2653A2"/>
						<stop  offset="0.7988" style="stop-color:#29357A"/>
						<stop  offset="1" style="stop-color:#3B4081"/>
					</linearGradient>
					<path class="st18" d="M217.5,9.6c0,10.2,0,20.4,0,30.6c34,19.1,68.1,38.3,102.1,57.4c34.2-19,68.5-38.1,102.7-57.1
						c0-10.9,0-21.7,0-32.6C388,29.2,353.8,50.3,319.5,71.5C285.5,50.9,251.5,30.3,217.5,9.6z"/>
				</g>
			</g>
		</g>
	</g>
</g>
</svg>
