<?xml version="1.0" encoding="utf-8"?>
<!-- Generator: Adobe Illustrator 25.2.3, SVG Export Plug-In . SVG Version: 6.00 Build 0)  -->
<svg version="1.1" id="Layer_1" xmlns="http://www.w3.org/2000/svg" xmlns:xlink="http://www.w3.org/1999/xlink" x="0px" y="0px"
	 viewBox="0 0 512 512" style="enable-background:new 0 0 512 512;" xml:space="preserve">
<style type="text/css">
	.st0{opacity:0.4;fill:#346CB4;enable-background:new    ;}
	.st1{fill:#346CB4;}
</style>
<g>
	<path class="st0" d="M323.3,323.3C187,459.7,46.3,540.1,9.1,502.9c-23.5-23.5,0-88.3,54.8-167.2c6.5,15.6,14.9,30.3,25,43.8
		c-22.5,34.2-32,59-23.7,67.3c18.6,18.6,119.1-51.8,224.5-157.1C395,184.3,465.4,83.8,446.8,65.2c-8.3-8.3-33.1,1.3-67.3,23.7
		c-13.5-10.1-28.2-18.5-43.8-25C414.6,9.1,479.4-14.4,502.9,9.1C540.1,46.3,459.7,187,323.3,323.3z"/>
	<path class="st1" d="M448.1,176.3c-32,46-74.5,96.8-124.8,147.1c-50.2,50.2-101,92.8-147.1,124.8c75.4,31.3,165.5,16.3,226.8-45
		S479.4,251.7,448.1,176.3L448.1,176.3z M423.1,132.5c-6.1-8.3-12.8-16.2-20-23.6c-81.2-81.2-212.9-81.2-294.2,0
		c-81.2,81.2-81.2,212.9,0,294.2c7.4,7.2,15.2,13.9,23.6,20c42.3-27.7,98.9-75.2,157.2-133.4C347.9,231.4,395.3,174.8,423.1,132.5
		L423.1,132.5z"/>
</g>
</svg>
