<svg xmlns="http://www.w3.org/2000/svg"><symbol id="chevron-up" viewBox="0 0 448 512"><path fill="currentColor" d="M4.465 366.475l7.07 7.071c4.686 4.686 12.284 4.686 16.971 0L224 178.053l195.494 195.493c4.686 4.686 12.284 4.686 16.971 0l7.07-7.071c4.686-4.686 4.686-12.284 0-16.97l-211.05-211.051c-4.686-4.686-12.284-4.686-16.971 0L4.465 349.505c-4.687 4.686-4.687 12.284 0 16.97z"/></symbol><symbol id="discord" viewBox="0 0 640 512"><path fill="currentColor" d="M524.531 69.836a1.5 1.5 0 0 0-.764-.7A485.065 485.065 0 0 0 404.081 32.03a1.816 1.816 0 0 0-1.923.91 337.461 337.461 0 0 0-14.9 30.6 447.848 447.848 0 0 0-134.426 0 309.541 309.541 0 0 0-15.135-30.6 1.89 1.89 0 0 0-1.924-.91 483.689 483.689 0 0 0-119.688 37.107 1.712 1.712 0 0 0-.788.676C39.068 183.651 18.186 294.69 28.43 404.354a2.016 2.016 0 0 0 .765 1.375 487.666 487.666 0 0 0 146.825 74.189 1.9 1.9 0 0 0 2.063-.676A348.2 348.2 0 0 0 208.12 430.4a1.86 1.86 0 0 0-1.019-2.588 321.173 321.173 0 0 1-45.868-21.853 1.885 1.885 0 0 1-.185-3.126 251.047 251.047 0 0 0 9.109-7.137 1.819 1.819 0 0 1 1.9-.256c96.229 43.917 200.41 43.917 295.5 0a1.812 1.812 0 0 1 1.924.233 234.533 234.533 0 0 0 9.132 7.16 1.884 1.884 0 0 1-.162 3.126 301.407 301.407 0 0 1-45.89 21.83 1.875 1.875 0 0 0-1 2.611 391.055 391.055 0 0 0 30.014 48.815 1.864 1.864 0 0 0 2.063.7A486.048 486.048 0 0 0 610.7 405.729a1.882 1.882 0 0 0 .765-1.352c12.264-126.783-20.532-236.912-86.934-334.541zM222.491 337.58c-28.972 0-52.844-26.587-52.844-59.239s23.409-59.241 52.844-59.241c29.665 0 53.306 26.82 52.843 59.239 0 32.654-23.41 59.241-52.843 59.241zm195.38 0c-28.971 0-52.843-26.587-52.843-59.239s23.409-59.241 52.843-59.241c29.667 0 53.307 26.82 52.844 59.239 0 32.654-23.177 59.241-52.844 59.241z"/></symbol><symbol id="chevron-down" viewBox="0 0 448 512"><path fill="currentColor" d="M443.5 162.6l-7.1-7.1c-4.7-4.7-12.3-4.7-17 0L224 351 28.5 155.5c-4.7-4.7-12.3-4.7-17 0l-7.1 7.1c-4.7 4.7-4.7 12.3 0 17l211 211.1c4.7 4.7 12.3 4.7 17 0l211-211.1c4.8-4.7 4.8-12.3.1-17z"/></symbol><symbol id="twitter" viewBox="0 0 512 512"><path fill="currentColor" d="M459.37 151.716c.325 4.548.325 9.097.325 13.645 0 138.72-105.583 298.558-298.558 298.558-59.452 0-114.68-17.219-161.137-47.106 8.447.974 16.568 1.299 25.34 1.299 49.055 0 94.213-16.568 130.274-44.832-46.132-.975-84.792-31.188-98.112-72.772 6.498.974 12.995 1.624 19.818 1.624 9.421 0 18.843-1.3 27.614-3.573-48.081-9.747-84.143-51.98-84.143-102.985v-1.299c13.969 7.797 30.214 12.67 47.431 13.319-28.264-18.843-46.781-51.005-46.781-87.391 0-19.492 5.197-37.36 14.294-52.954 51.655 63.675 129.3 105.258 216.365 109.807-1.624-7.797-2.599-15.918-2.599-24.04 0-57.828 46.782-104.934 104.934-104.934 30.213 0 57.502 12.67 76.67 33.137 23.715-4.548 46.456-13.32 66.599-25.34-7.798 24.366-24.366 44.833-46.132 57.827 21.117-2.273 41.584-8.122 60.426-16.243-14.292 20.791-32.161 39.308-52.628 54.253z"/></symbol><symbol id="chevron-right" viewBox="0 0 256 512"><path fill="currentColor" d="M17.525 36.465l-7.071 7.07c-4.686 4.686-4.686 12.284 0 16.971L205.947 256 10.454 451.494c-4.686 4.686-4.686 12.284 0 16.971l7.071 7.07c4.686 4.686 12.284 4.686 16.97 0l211.051-211.05c4.686-4.686 4.686-12.284 0-16.971L34.495 36.465c-4.686-4.687-12.284-4.687-16.97 0z"/></symbol><symbol id="telegram" viewBox="0 0 448 512"><path fill="currentColor" d="M446.7 98.6l-67.6 318.8c-5.1 22.5-18.4 28.1-37.3 17.5l-103-75.9-49.7 47.8c-5.5 5.5-10.1 10.1-20.7 10.1l7.4-104.9 190.9-172.5c8.3-7.4-1.8-11.5-12.9-4.1L117.8 284 16.2 252.2c-22.1-6.9-22.5-22.1 4.6-32.7L418.2 66.4c18.4-6.9 34.5 4.1 28.5 32.2z"/></symbol><symbol id="planet" viewBox="0 0 512 512"><style>.st0{opacity:.4;enable-background:new}.st0,.st1{fill:#346cb4}</style><path d="M323.3 323.3C187 459.7 46.3 540.1 9.1 502.9c-23.5-23.5 0-88.3 54.8-167.2 6.5 15.6 14.9 30.3 25 43.8-22.5 34.2-32 59-23.7 67.3 18.6 18.6 119.1-51.8 224.5-157.1C395 184.3 465.4 83.8 446.8 65.2c-8.3-8.3-33.1 1.3-67.3 23.7-13.5-10.1-28.2-18.5-43.8-25C414.6 9.1 479.4-14.4 502.9 9.1c37.2 37.2-43.2 177.9-179.6 314.2z" class="st0"/><path d="M448.1 176.3c-32 46-74.5 96.8-124.8 147.1-50.2 50.2-101 92.8-147.1 124.8 75.4 31.3 165.5 16.3 226.8-45s76.4-151.5 45.1-226.9zm-25-43.8c-6.1-8.3-12.8-16.2-20-23.6-81.2-81.2-212.9-81.2-294.2 0-81.2 81.2-81.2 212.9 0 294.2 7.4 7.2 15.2 13.9 23.6 20 42.3-27.7 98.9-75.2 157.2-133.4 58.2-58.3 105.6-114.9 133.4-157.2z" class="st1"/></symbol><symbol id="plus" viewBox="0 0 384 512"><path fill="currentColor" d="M376 232H216V72c0-4.42-3.58-8-8-8h-32c-4.42 0-8 3.58-8 8v160H8c-4.42 0-8 3.58-8 8v32c0 4.42 3.58 8 8 8h160v160c0 4.42 3.58 8 8 8h32c4.42 0 8-3.58 8-8V280h160c4.42 0 8-3.58 8-8v-32c0-4.42-3.58-8-8-8z"/></symbol><symbol id="chevron-left" viewBox="0 0 256 512"><path fill="currentColor" d="M238.475 475.535l7.071-7.07c4.686-4.686 4.686-12.284 0-16.971L50.053 256 245.546 60.506c4.686-4.686 4.686-12.284 0-16.971l-7.071-7.07c-4.686-4.686-12.284-4.686-16.97 0L10.454 247.515c-4.686 4.686-4.686 12.284 0 16.971l211.051 211.05c4.686 4.686 12.284 4.686 16.97-.001z"/></symbol><symbol id="rocket" viewBox="0 0 512 512"><g class="fa-group"><path fill="currentColor" d="M35.68 352.066C9.827 377.92-2.95 442.594.577 511.41c69.101 3.559 133.59-9.351 159.34-35.105 40.285-40.28 42.87-93.987 6.308-130.55-36.558-36.558-90.265-33.97-130.547 6.311zm94.956 81.055c-10.73 10.733-37.605 16.111-66.402 14.627-1.465-28.674 3.86-55.623 14.633-66.396 16.781-16.786 39.164-17.864 54.398-2.63 15.23 15.237 14.157 37.616-2.629 54.4zM51.941 154.484l-49.41 98.813A28.125 28.125 0 0 0 0 264a24.006 24.006 0 0 0 24 24h93.46c23.442-47.412 61.012-123.373 77.891-157.328.52-.914 1-1.768 1.524-2.672H94.82c-16.344.016-35.531 11.875-42.879 26.484zm329.395 162.088C347.375 333.58 271.273 371.252 224 394.646v93.563A24.124 24.124 0 0 0 247.96 512a28.03 28.03 0 0 0 10.626-2.531l98.726-49.39c14.625-7.313 26.5-26.5 26.5-42.86V315.703c.067-.04.125-.088.188-.129v-.527c-.906.52-1.746 1.002-2.664 1.525z" class="fa-secondary" opacity=".4"/><path fill="currentColor" d="M505.16 19.516a16.74 16.74 0 0 0-12.535-12.57C460.226 0 434.375 0 409.485 0c-89.15 0-156.677 40.615-212.509 127.818-.558.979-1.07 1.877-1.625 2.854-16.879 33.955-54.449 109.916-77.89 157.328H128a96 96 0 0 1 96 96v10.646c47.273-23.394 123.375-61.066 157.336-78.074l2.789-1.597c87.234-56.06 127.86-123.512 127.86-212.278.077-25.09.144-50.61-6.825-83.181zM368 192a48 48 0 1 1 48-48.002A48.022 48.022 0 0 1 368 192zM78.867 381.352c-10.773 10.773-16.098 37.722-14.633 66.396 28.797 1.484 55.672-3.894 66.402-14.627 16.786-16.783 17.86-39.162 2.63-54.398-15.235-15.235-37.618-14.157-54.399 2.629z" class="fa-primary"/></g></symbol></svg>